<?xml version="1.0" encoding="UTF-8"?>
<!DOCTYPE svg PUBLIC "-//W3C//DTD SVG 1.1//EN" "http://www.w3.org/Graphics/SVG/1.1/DTD/svg11.dtd">
<!-- Creator: CorelDRAW -->
<svg xmlns="http://www.w3.org/2000/svg" xml:space="preserve" width="144.51mm" height="135.557mm" version="1.1" style="shape-rendering:geometricPrecision; text-rendering:geometricPrecision; image-rendering:optimizeQuality; fill-rule:evenodd; clip-rule:evenodd"
viewBox="0 0 1014.74 951.87"
 xmlns:xlink="http://www.w3.org/1999/xlink"
 xmlns:xodm="http://www.corel.com/coreldraw/odm/2003">
 <defs>
  <style type="text/css">
   <![CDATA[
    .fil0 {fill:#1A1A1A}
   ]]>
  </style>
 </defs>
 <g id="Layer_x0020_1">
  <metadata id="CorelCorpID_0Corel-Layer"/>
  <path class="fil0" d="M658 448.36c-0.97,-6.28 4.63,-27.83 7.62,-35.98 18.61,-50.69 91.93,-76.6 143.29,-29.71 16.26,14.84 25.69,39.44 26.83,62.15 3.53,70.35 -86.43,123.56 -150.28,65.26 -11.23,-10.25 -19.63,-26.74 -23.83,-41.57l-3.63 -20.15zm356.75 -16.55l0 31.99c-2.51,60.52 -19.31,120.71 -50.89,177.44 -15.77,28.32 -60.92,90.26 -89.82,112.33 -5.93,4.53 -8.56,8.26 -14.71,13.04 -51.76,40.27 -80.66,60.86 -145.26,86.63 -104.98,41.87 -207.6,48.21 -319.42,28.91 -37.34,-6.44 -52.68,-15.3 -79.52,-21.56 -4.32,6.45 -23.75,21.47 -30.87,26.61 -34.87,25.14 -70.72,43.92 -113.81,54.66 -17.76,4.42 -43.72,9.9 -65.41,9.9 -15.09,0 -45.58,3.48 -45.58,-29.73 0,-27.42 40.86,-37.53 55.69,-106.83 5.6,-26.17 6.81,-44.68 2.45,-72.2 -2.32,-14.66 -6.05,-17.04 -14.04,-25.6l-34.99 -46.27c-5.85,-8.79 -9.86,-16.28 -14.94,-24.7l-26.47 -54.78c-21.67,-55.42 -27.15,-95.53 -27.15,-159.15 0,-37.53 8.05,-69.07 15.84,-99.11 16.55,-63.81 53.14,-115.8 94.56,-165.07 8.35,-9.93 17.97,-21.24 28.33,-29.14 6.08,-4.64 8.63,-8.39 14.46,-13.29 154.21,-129.88 374.1,-160.67 562.29,-85.81 13.97,5.56 26.7,11.37 39.63,17.84 12.45,6.23 25.62,12.63 37.28,20.19 44.76,29.01 92.1,63.73 125.25,106.63 17.28,22.35 33.32,42.76 46.9,68.05 30.79,57.35 47.68,118.07 50.2,179.01zm-594.58 16.55c-0.97,-6.28 4.63,-27.83 7.62,-35.98 3.36,-9.15 11.82,-21.11 17.86,-27.72 4.77,-5.22 18.33,-14.75 25.47,-18.13 35.24,-16.72 73.69,-7.83 99.96,16.15 5.22,4.77 14.75,18.33 18.13,25.47 4.78,10.08 8.09,24.6 8.7,36.68 2.33,46.48 -35.92,87.55 -87,90.11 -35,1.76 -67.9,-21.83 -81.41,-50.32 -4.98,-10.49 -7.61,-25.13 -9.33,-36.26zm-237.83 0c-0.01,-0.07 2.34,-18.33 2.5,-19.3 6.64,-39.72 42.36,-69.09 85.13,-71.24 70.35,-3.53 123.56,86.43 65.26,150.28 -4.77,5.22 -18.33,14.75 -25.47,18.13 -54.76,25.97 -119.18,-10.02 -125.42,-67.99 -0.72,-6.72 -1.6,-7.28 -2,-9.89z"/>
 </g>
</svg>
