<?xml version="1.0" encoding="UTF-8"?>
<!DOCTYPE svg PUBLIC "-//W3C//DTD SVG 1.1//EN" "http://www.w3.org/Graphics/SVG/1.1/DTD/svg11.dtd">
<!-- Creator: CorelDRAW -->
<svg xmlns="http://www.w3.org/2000/svg" xml:space="preserve" width="144.51mm" height="135.557mm" version="1.1" style="shape-rendering:geometricPrecision; text-rendering:geometricPrecision; image-rendering:optimizeQuality; fill-rule:evenodd; clip-rule:evenodd"
viewBox="0 0 988.71 927.45"
 xmlns:xlink="http://www.w3.org/1999/xlink"
 xmlns:xodm="http://www.corel.com/coreldraw/odm/2003">
 <defs>
  <style type="text/css">
   <![CDATA[
    .fil0 {fill:#1A1A1A}
   ]]>
  </style>
 </defs>
 <g id="Layer_x0020_1">
  <metadata id="CorelCorpID_0Corel-Layer"/>
  <path class="fil0" d="M641.12 436.86c-0.95,-6.12 4.51,-27.12 7.42,-35.06 18.13,-49.39 89.57,-74.64 139.61,-28.94 15.84,14.46 25.03,38.43 26.14,60.56 3.44,68.55 -84.22,120.39 -146.43,63.59 -10.94,-9.99 -19.13,-26.05 -23.22,-40.51l-3.54 -19.63zm347.59 -16.12l0 31.17c-2.45,58.97 -18.81,117.61 -49.59,172.89 -15.36,27.6 -59.35,87.94 -87.52,109.45 -5.78,4.42 -8.34,8.04 -14.33,12.7 -50.43,39.23 -78.59,59.3 -141.53,84.41 -102.29,40.8 -202.27,46.97 -311.22,28.17 -36.38,-6.28 -51.33,-14.91 -77.48,-21 -4.21,6.29 -23.14,20.92 -30.08,25.92 -33.98,24.5 -68.9,42.8 -110.89,53.26 -17.3,4.31 -42.6,9.65 -63.73,9.65 -14.7,0 -44.41,3.39 -44.41,-28.97 0,-26.71 39.82,-36.56 54.26,-104.09 5.45,-25.5 6.63,-43.53 2.39,-70.35 -2.26,-14.29 -5.89,-16.61 -13.68,-24.94l-34.1 -45.08c-5.7,-8.56 -9.61,-15.86 -14.56,-24.06l-25.8 -53.38c-21.11,-54 -26.45,-93.08 -26.45,-155.07 0,-36.56 7.84,-67.3 15.43,-96.57 16.12,-62.17 51.78,-112.83 92.14,-160.83 8.13,-9.67 17.51,-20.69 27.61,-28.39 5.92,-4.52 8.41,-8.17 14.09,-12.95 150.26,-126.55 364.5,-156.55 547.86,-83.61 13.61,5.42 26.02,11.08 38.62,17.38 12.14,6.07 24.96,12.31 36.33,19.68 43.62,28.27 89.74,62.1 122.04,103.9 16.83,21.78 32.47,41.66 45.7,66.31 30,55.88 46.46,115.05 48.91,174.42zm-579.32 16.12c-0.95,-6.12 4.51,-27.12 7.42,-35.06 3.27,-8.91 11.52,-20.57 17.4,-27.01 4.64,-5.08 17.86,-14.37 24.81,-17.67 34.34,-16.29 71.8,-7.63 97.4,15.74 5.08,4.64 14.37,17.86 17.67,24.82 4.66,9.82 7.88,23.96 8.47,35.74 2.27,45.28 -35,85.3 -84.77,87.8 -34.1,1.71 -66.16,-21.27 -79.33,-49.03 -4.85,-10.22 -7.41,-24.49 -9.09,-35.33zm-231.73 0c-0.01,-0.07 2.28,-17.86 2.44,-18.81 6.47,-38.7 41.28,-67.32 82.95,-69.41 68.55,-3.44 120.39,84.22 63.59,146.43 -4.64,5.09 -17.86,14.37 -24.81,17.67 -53.35,25.31 -116.12,-9.76 -122.21,-66.24 -0.71,-6.55 -1.56,-7.1 -1.95,-9.64z"/>
 </g>
</svg>
